<?xml version="1.0" encoding="UTF-8" standalone="no"?>
<!DOCTYPE svg PUBLIC "-//W3C//DTD SVG 1.1//EN"
 "http://www.w3.org/Graphics/SVG/1.1/DTD/svg11.dtd">
<!-- Generated by graphviz version 2.40.1 (20161225.0304)
 -->
<!-- Title: G Pages: 1 -->
<svg width="490pt" height="98pt"
 viewBox="0.00 0.00 489.62 98.00" xmlns="http://www.w3.org/2000/svg" xmlns:xlink="http://www.w3.org/1999/xlink">
<g id="graph0" class="graph" transform="scale(1 1) rotate(0) translate(4 94)">
<title>G</title>
<polygon fill="#ffffff" stroke="transparent" points="-4,4 -4,-94 485.6152,-94 485.6152,4 -4,4"/>
<!-- A -->
<g id="node1" class="node">
<title>A</title>
<ellipse fill="none" stroke="#000000" cx="47.4325" cy="-45" rx="47.365" ry="18"/>
<text text-anchor="middle" x="47.4325" y="-40.8" font-family="Times,serif" font-size="14.00" fill="#000000">Dockerfile</text>
</g>
<!-- B -->
<g id="node2" class="node">
<title>B</title>
<ellipse fill="none" stroke="#000000" cx="220.0828" cy="-45" rx="60.3772" ry="18"/>
<text text-anchor="middle" x="220.0828" y="-40.8" font-family="Times,serif" font-size="14.00" fill="#000000">Docker Image</text>
</g>
<!-- A&#45;&gt;B -->
<g id="edge1" class="edge">
<title>A&#45;&gt;B</title>
<path fill="none" stroke="#000000" d="M95.067,-45C111.9101,-45 131.231,-45 149.5667,-45"/>
<polygon fill="#000000" stroke="#000000" points="149.6299,-48.5001 159.6299,-45 149.6299,-41.5001 149.6299,-48.5001"/>
<text text-anchor="middle" x="127.2546" y="-47.8" font-family="Times,serif" font-size="14.00" fill="#000000">build</text>
</g>
<!-- C -->
<g id="node3" class="node">
<title>C</title>
<ellipse fill="none" stroke="#000000" cx="408.3993" cy="-72" rx="73.4323" ry="18"/>
<text text-anchor="middle" x="408.3993" y="-67.8" font-family="Times,serif" font-size="14.00" fill="#000000">Docker Container</text>
</g>
<!-- B&#45;&gt;C -->
<g id="edge2" class="edge">
<title>B&#45;&gt;C</title>
<path fill="none" stroke="#000000" d="M274.5517,-52.8095C293.4159,-55.5142 314.8816,-58.5918 335.0139,-61.4783"/>
<polygon fill="#000000" stroke="#000000" points="334.6892,-64.9675 345.0848,-62.9222 335.6828,-58.0383 334.6892,-64.9675"/>
<text text-anchor="middle" x="307.8524" y="-60.8" font-family="Times,serif" font-size="14.00" fill="#000000">run</text>
</g>
<!-- D -->
<g id="node4" class="node">
<title>D</title>
<ellipse fill="none" stroke="#000000" cx="408.3993" cy="-18" rx="73.4323" ry="18"/>
<text text-anchor="middle" x="408.3993" y="-13.8" font-family="Times,serif" font-size="14.00" fill="#000000">Docker Container</text>
</g>
<!-- B&#45;&gt;D -->
<g id="edge3" class="edge">
<title>B&#45;&gt;D</title>
<path fill="none" stroke="#000000" d="M274.5517,-37.1905C293.4159,-34.4858 314.8816,-31.4082 335.0139,-28.5217"/>
<polygon fill="#000000" stroke="#000000" points="335.6828,-31.9617 345.0848,-27.0778 334.6892,-25.0325 335.6828,-31.9617"/>
<text text-anchor="middle" x="307.8524" y="-35.8" font-family="Times,serif" font-size="14.00" fill="#000000">run</text>
</g>
</g>
</svg>
